<svg viewBox="0 0 274 113" xmlns="http://www.w3.org/2000/svg" xml:space="preserve" style="fill-rule:evenodd;clip-rule:evenodd;stroke-linejoin:round;stroke-miterlimit:2">
  <path d="M171.897 32.694c.333.751.518 1.583.518 2.458V54.69l1.102.003 20.497-35.495c.088-.153.183-.302.285-.447 1.377-1.967 3.015-3.72 5.07-4.906 5.162-2.978 12.133-2.38 16.715 1.473 1.567 1.318 1.822 1.792 2.978 3.45.1.145.196.294.285.447l31.994 55.577.042.074L261.19 91.9a6.082 6.082 0 0 1-5.27 9.113h-19.71a6.08 6.08 0 0 1-5.27-3.046l-14.437-25.076-12.05 20.868a6.18 6.18 0 0 1-.285.447l-.857 1.223c-.203.29-.432.563-.682.813-1.082 1.081-2.224 2.117-3.542 2.877l-.006.003a14.626 14.626 0 0 1-4.784 1.73h-.004c-.664.116-1.342.138-2.015.195a6.005 6.005 0 0 1-.53.021l-33.997-.098c-.177 0-.353-.009-.53-.024l-1.48-.134a6.07 6.07 0 0 1-1.039-.186c-1.948-.527-2.48-.605-4.245-1.63l-.012-.007a14.687 14.687 0 0 1-5.56-5.78l-4.209-7.41v9.157a6.08 6.08 0 0 1-6.08 6.08h-17.083a6.06 6.06 0 0 1-4.195-1.68 6.02 6.02 0 0 1-.793-.923 6.025 6.025 0 0 1-.3-.474l-4.373-7.63-4.835-8.383-.486-.84a6.212 6.212 0 0 1-.441-.828 6.06 6.06 0 0 1-.505-2.43V56.4L79.987 93.8a6.122 6.122 0 0 1-.285.447c-1.378 1.967-3.016 3.72-5.072 4.907-5.162 2.977-12.132 2.379-16.715-1.474-1.566-1.318-1.82-1.792-2.978-3.45a6.057 6.057 0 0 1-.283-.447L22.659 38.207a5.056 5.056 0 0 1-.042-.074L12.81 21.1a6.08 6.08 0 0 1 5.269-9.113H37.79a6.08 6.08 0 0 1 5.27 3.046l14.435 25.076 12.05-20.868c.09-.153.185-.302.286-.447l.857-1.223c.203-.29.432-.563.683-.813 1.082-1.081 2.222-2.117 3.542-2.877l.005-.003a14.634 14.634 0 0 1 4.785-1.73h.002c.665-.116 1.344-.138 2.016-.195a6.01 6.01 0 0 1 .529-.021l33.998.098c.177 0 .353.009.53.024l1.48.134c.35.032.698.094 1.039.186 1.948.527 2.48.605 4.245 1.63l.012.007a14.685 14.685 0 0 1 5.702 6.051l4.067 7.454v-9.472a6.08 6.08 0 0 1 6.08-6.08h17.083c1.775 0 3.372.76 4.483 1.973v.001c.272.296.514.618.723.963v.002c.049.08.096.161.14.244l9.438 16.455c.245.339.455.705.626 1.091Zm55.404 45.132c-.582 0-1.12-.31-1.41-.815l-18.62-32.346a.702.702 0 0 0-1.215 0L189.34 73.61l-.856 1.222c-.706.705-1.42 1.415-2.28 1.91a8.558 8.558 0 0 1-2.798 1.012c-.49.085-.991.084-1.487.126l-33.998-.098-1.48-.134c-1.27-.343-1.63-.352-2.78-1.02a8.607 8.607 0 0 1-3.744-4.471c-.454-1.25-.4-1.607-.513-2.917V19.122c0-.595.482-1.078 1.078-1.078h14.927c.596 0 1.078.483 1.078 1.078V59.65c0 .594.481 1.076 1.075 1.078l18.517.053a1.627 1.627 0 0 0 1.413-.813l21.786-37.729c.863-1.232 1.84-2.384 3.13-3.127 3.015-1.74 7.086-1.39 9.764.861 1.021.858 1.152 1.196 1.906 2.276l31.52 54.754a.556.556 0 0 1 0 .549.552.552 0 0 1-.475.274H227.3Zm-190.45-59.76c.582 0 1.12.311 1.41.815 2.64 4.589 15.646 27.18 18.62 32.346a.701.701 0 0 0 1.215.001l16.716-28.946.856-1.223c.706-.704 1.42-1.414 2.28-1.91a8.556 8.556 0 0 1 2.798-1.011c.49-.085.992-.085 1.487-.126l33.998.098 1.48.133c1.27.343 1.631.352 2.78 1.02a8.608 8.608 0 0 1 3.744 4.472c.454 1.25.4 1.607.513 2.916v50.12c0 .594-.482 1.077-1.078 1.077h-14.927a1.078 1.078 0 0 1-1.078-1.078V36.243c0-.594-.48-1.076-1.075-1.078l-18.517-.054a1.627 1.627 0 0 0-1.413.813l-21.786 37.73c-.864 1.232-1.84 2.383-3.13 3.126-3.015 1.74-7.087 1.39-9.764-.86-1.02-.859-1.151-1.197-1.905-2.277L18.554 18.89a.55.55 0 0 1 .475-.823h17.822Z"/>
  <path d="M226.301 76.826a1.625 1.625 0 0 1-1.409-.815l-18.621-32.346a.702.702 0 0 0-1.215-.001L188.34 72.611l-.856 1.222c-.706.705-1.42 1.415-2.28 1.91a8.568 8.568 0 0 1-2.798 1.012c-.49.085-.991.084-1.487.126l-33.998-.098-1.481-.134c-1.268-.343-1.63-.352-2.78-1.019a8.606 8.606 0 0 1-3.743-4.472c-.454-1.25-.399-1.607-.513-2.917V18.122c0-.595.482-1.078 1.078-1.078h14.927c.596 0 1.078.483 1.078 1.078V58.65c0 .594.481 1.076 1.075 1.078l18.517.053a1.624 1.624 0 0 0 1.413-.813l21.786-37.729c.864-1.232 1.84-2.384 3.129-3.127 3.016-1.74 7.088-1.39 9.765.861 1.021.858 1.151 1.196 1.905 2.276l31.522 54.754a.552.552 0 0 1-.476.823h-17.822Zm-190.45-59.76c.582 0 1.119.311 1.409.815l18.622 32.346a.701.701 0 0 0 1.214.001l16.716-28.946.856-1.223c.706-.704 1.42-1.414 2.28-1.91a8.552 8.552 0 0 1 2.798-1.011c.49-.085.992-.085 1.487-.126l33.998.098 1.481.133c1.268.343 1.63.352 2.78 1.019a8.609 8.609 0 0 1 3.743 4.473c.454 1.249.399 1.607.513 2.916V75.77c0 .596-.482 1.078-1.078 1.078h-14.927a1.078 1.078 0 0 1-1.078-1.078V35.243c0-.594-.481-1.076-1.075-1.078l-18.517-.054a1.628 1.628 0 0 0-1.413.813L63.874 72.653c-.864 1.233-1.84 2.384-3.129 3.127-3.016 1.74-7.088 1.39-9.765-.861-1.021-.858-1.151-1.196-1.905-2.276L17.554 17.889a.547.547 0 0 1 .476-.823h17.821Z" style="fill:#fff" transform="translate(1 1)"/>
</svg>